<svg width="2948" height="1300" viewBox="0 0 2948 1300" fill="none" xmlns="http://www.w3.org/2000/svg">
<g clip-path="url(#clip0_449_504)">
<path d="M87.2075 626.056H291.285C307.484 626.056 323.021 632.328 334.476 643.492C345.931 654.656 352.366 669.799 352.366 685.587V932.128C352.366 935.542 350.975 938.816 348.498 941.23C346.021 943.644 342.661 945 339.159 945H87.2075C83.7094 945 80.3541 943.647 77.878 941.239C75.4019 938.831 74.0072 935.563 74 932.154V638.902C74.0072 635.492 75.4019 632.225 77.878 629.817C80.3541 627.408 83.7094 626.056 87.2075 626.056Z" fill="url(#paint0_linear_449_504)"/>
<path d="M302.096 359.609L79.7727 563.976C77.8374 565.804 76.5025 568.15 75.9365 570.718C75.3705 573.286 75.599 575.961 76.5934 578.402C77.5877 580.843 79.3035 582.942 81.5225 584.433C83.7416 585.923 86.3645 586.738 89.0592 586.774H645.138C648.749 586.774 652.213 585.376 654.766 582.888C657.32 580.399 658.754 577.023 658.754 573.504V368.979C658.754 365.459 657.32 362.083 654.766 359.595C652.213 357.106 648.749 355.708 645.138 355.708H311.381C307.887 355.799 304.562 357.195 302.096 359.609Z" fill="url(#paint1_linear_449_504)"/>
<path d="M525.208 897.916C598.933 897.916 658.699 839.666 658.699 767.811C658.699 695.957 598.933 637.707 525.208 637.707C451.482 637.707 391.716 695.957 391.716 767.811C391.716 839.666 451.482 897.916 525.208 897.916Z" fill="url(#paint2_linear_449_504)"/>
<path d="M1351.4 536.135H1094.63V600.709H1343.75V696.257H1094.63V839.871H964.406V442.763H1351.48L1351.4 536.135Z" fill="#262345"/>
<path d="M1915.87 632.186V648.111C1915.87 731.344 1866.6 846.081 1662.39 846.081H1637.88C1434.21 846.081 1384.38 731.344 1384.38 648.111V632.186C1384.38 547.892 1434.21 436.366 1637.88 436.366H1662.39C1866.06 436.446 1915.87 547.919 1915.87 632.186ZM1650.33 535.604C1541.4 535.604 1520.59 593.251 1520.59 636.46V643.466C1520.59 686.675 1543.58 745.915 1650.33 745.915C1758.74 745.915 1779.54 686.675 1779.54 643.466V636.512C1779.54 593.25 1758.74 535.604 1650.33 535.604V535.604Z" fill="#262345"/>
<path d="M2185.79 442.763C2403.65 442.763 2452.42 543.619 2452.42 629.002V644.927C2452.42 732.512 2411.9 839.685 2186.34 839.685H1961.32V442.763H2185.79ZM2174.3 744.323C2303.52 744.323 2316.1 684.048 2316.1 641.343V638.158C2316.1 597.073 2302.97 537.86 2174.3 537.86H2092.17V744.323H2174.3Z" fill="#262345"/>
<path d="M2627.63 736.361H2874V839.871H2496.78V442.763H2627.63V736.361Z" fill="#262345"/>
</g>
<defs>
<linearGradient id="paint0_linear_449_504" x1="74" y1="629.095" x2="490.994" y2="436.685" gradientUnits="userSpaceOnUse">
<stop stop-color="#F85860"/>
<stop offset="1" stop-color="#FFA84A"/>
</linearGradient>
<linearGradient id="paint1_linear_449_504" x1="34.8509" y1="471.127" x2="693.908" y2="466.843" gradientUnits="userSpaceOnUse">
<stop stop-color="#9159F9"/>
<stop offset="1" stop-color="#783EE3"/>
</linearGradient>
<linearGradient id="paint2_linear_449_504" x1="369.477" y1="809.529" x2="679.004" y2="804.36" gradientUnits="userSpaceOnUse">
<stop stop-color="#FFA84A"/>
<stop offset="1" stop-color="#FFD08A"/>
</linearGradient>
<clipPath id="clip0_449_504">
<rect width="2800" height="589" fill="white" transform="translate(74 356)"/>
</clipPath>
</defs>
</svg>
